<svg xmlns="http://www.w3.org/2000/svg" viewBox="0 0 1200 800" role="img" aria-label="Illustration of an air conditioner outdoor unit"><defs><linearGradient id="bg" x1="0" y1="0" x2="1" y2="1"><stop offset="0" stop-color="#134e4a"/><stop offset="1" stop-color="#1F5FAD"/></linearGradient>
<pattern id="dots" width="28" height="28" patternUnits="userSpaceOnUse"><circle cx="2" cy="2" r="1.4" fill="#fff" fill-opacity=".10"/></pattern></defs>
<rect width="1200" height="800" fill="url(#bg)"/><rect width="1200" height="800" fill="url(#dots)"/><path d="M0 640 L170 470 L260 560 L390 400 L520 590 L640 450 L760 580 L900 420 L1040 560 L1200 450 L1200 800 L0 800Z" fill="#fff" fill-opacity=".08"/>
<path d="M0 700 L200 560 L330 650 L480 520 L640 660 L800 540 L960 650 L1200 540 L1200 800 L0 800Z" fill="#fff" fill-opacity=".10"/><g transform="translate(300 220)"><rect width="600" height="360" rx="36" fill="#fff" fill-opacity=".95"/><g stroke="#cbd5e1" stroke-width="10" stroke-linecap="round"><path d="M60 250 H540 M60 290 H540 M60 330 H540"/></g><circle cx="300" cy="120" r="70" fill="none" stroke="#1F5FAD" stroke-width="12"/><path d="M300 60 V180 M240 120 H360" stroke="#1F5FAD" stroke-width="10"/></g>
<g stroke="#bfdbfe" stroke-width="10" stroke-linecap="round" fill="none"><path d="M360 640 q30 40 0 80 M520 640 q30 40 0 80 M680 640 q30 40 0 80 M840 640 q30 40 0 80"/></g></svg>